<mxfile host="app.diagrams.net" agent="Mozilla/5.0 (X11; Linux x86_64; rv:100.0) Gecko/20100101 Firefox/100.0" version="26.0.14">
  <diagram name="Pagina-1" id="BEc41Fl74DZAF1B0u1kP">
    <mxGraphModel dx="1364" dy="795" grid="1" gridSize="10" guides="1" tooltips="1" connect="1" arrows="1" fold="1" page="1" pageScale="1" pageWidth="827" pageHeight="1169" math="0" shadow="0">
      <root>
        <mxCell id="0" />
        <mxCell id="1" parent="0" />
        <mxCell id="jg6FokKtZJb7YqYSdvbs-3" value="" style="edgeStyle=orthogonalEdgeStyle;rounded=0;orthogonalLoop=1;jettySize=auto;html=1;" edge="1" parent="1" source="jg6FokKtZJb7YqYSdvbs-1" target="jg6FokKtZJb7YqYSdvbs-2">
          <mxGeometry relative="1" as="geometry" />
        </mxCell>
        <mxCell id="jg6FokKtZJb7YqYSdvbs-1" value="Start" style="ellipse;whiteSpace=wrap;html=1;" vertex="1" parent="1">
          <mxGeometry x="350" y="370" width="120" height="80" as="geometry" />
        </mxCell>
        <mxCell id="jg6FokKtZJb7YqYSdvbs-5" value="" style="edgeStyle=orthogonalEdgeStyle;rounded=0;orthogonalLoop=1;jettySize=auto;html=1;" edge="1" parent="1" source="jg6FokKtZJb7YqYSdvbs-2" target="jg6FokKtZJb7YqYSdvbs-4">
          <mxGeometry relative="1" as="geometry" />
        </mxCell>
        <mxCell id="jg6FokKtZJb7YqYSdvbs-2" value="read n" style="shape=parallelogram;perimeter=parallelogramPerimeter;whiteSpace=wrap;html=1;fixedSize=1;" vertex="1" parent="1">
          <mxGeometry x="350" y="540" width="120" height="60" as="geometry" />
        </mxCell>
        <mxCell id="jg6FokKtZJb7YqYSdvbs-7" value="" style="edgeStyle=orthogonalEdgeStyle;rounded=0;orthogonalLoop=1;jettySize=auto;html=1;" edge="1" parent="1" source="jg6FokKtZJb7YqYSdvbs-4" target="jg6FokKtZJb7YqYSdvbs-6">
          <mxGeometry relative="1" as="geometry" />
        </mxCell>
        <mxCell id="jg6FokKtZJb7YqYSdvbs-8" value="True" style="edgeLabel;html=1;align=center;verticalAlign=middle;resizable=0;points=[];" vertex="1" connectable="0" parent="jg6FokKtZJb7YqYSdvbs-7">
          <mxGeometry x="-0.2857" y="3" relative="1" as="geometry">
            <mxPoint as="offset" />
          </mxGeometry>
        </mxCell>
        <mxCell id="jg6FokKtZJb7YqYSdvbs-10" value="" style="edgeStyle=orthogonalEdgeStyle;rounded=0;orthogonalLoop=1;jettySize=auto;html=1;" edge="1" parent="1" source="jg6FokKtZJb7YqYSdvbs-4" target="jg6FokKtZJb7YqYSdvbs-9">
          <mxGeometry relative="1" as="geometry" />
        </mxCell>
        <mxCell id="jg6FokKtZJb7YqYSdvbs-13" value="False" style="edgeLabel;html=1;align=center;verticalAlign=middle;resizable=0;points=[];" vertex="1" connectable="0" parent="jg6FokKtZJb7YqYSdvbs-10">
          <mxGeometry x="-0.15" relative="1" as="geometry">
            <mxPoint as="offset" />
          </mxGeometry>
        </mxCell>
        <mxCell id="jg6FokKtZJb7YqYSdvbs-4" value="n == 1" style="rhombus;whiteSpace=wrap;html=1;" vertex="1" parent="1">
          <mxGeometry x="370" y="670" width="80" height="80" as="geometry" />
        </mxCell>
        <mxCell id="jg6FokKtZJb7YqYSdvbs-27" value="" style="edgeStyle=orthogonalEdgeStyle;rounded=0;orthogonalLoop=1;jettySize=auto;html=1;" edge="1" parent="1" source="jg6FokKtZJb7YqYSdvbs-6" target="jg6FokKtZJb7YqYSdvbs-26">
          <mxGeometry relative="1" as="geometry" />
        </mxCell>
        <mxCell id="jg6FokKtZJb7YqYSdvbs-6" value="print 1st" style="shape=parallelogram;perimeter=parallelogramPerimeter;whiteSpace=wrap;html=1;fixedSize=1;" vertex="1" parent="1">
          <mxGeometry x="190" y="680" width="120" height="60" as="geometry" />
        </mxCell>
        <mxCell id="jg6FokKtZJb7YqYSdvbs-12" value="" style="edgeStyle=orthogonalEdgeStyle;rounded=0;orthogonalLoop=1;jettySize=auto;html=1;" edge="1" parent="1" source="jg6FokKtZJb7YqYSdvbs-9" target="jg6FokKtZJb7YqYSdvbs-11">
          <mxGeometry relative="1" as="geometry" />
        </mxCell>
        <mxCell id="jg6FokKtZJb7YqYSdvbs-14" value="True" style="edgeLabel;html=1;align=center;verticalAlign=middle;resizable=0;points=[];" vertex="1" connectable="0" parent="jg6FokKtZJb7YqYSdvbs-12">
          <mxGeometry x="-0.0857" y="-2" relative="1" as="geometry">
            <mxPoint as="offset" />
          </mxGeometry>
        </mxCell>
        <mxCell id="jg6FokKtZJb7YqYSdvbs-16" value="" style="edgeStyle=orthogonalEdgeStyle;rounded=0;orthogonalLoop=1;jettySize=auto;html=1;" edge="1" parent="1" source="jg6FokKtZJb7YqYSdvbs-9" target="jg6FokKtZJb7YqYSdvbs-15">
          <mxGeometry relative="1" as="geometry" />
        </mxCell>
        <mxCell id="jg6FokKtZJb7YqYSdvbs-20" value="False" style="edgeLabel;html=1;align=center;verticalAlign=middle;resizable=0;points=[];" vertex="1" connectable="0" parent="jg6FokKtZJb7YqYSdvbs-16">
          <mxGeometry x="0.05" y="4" relative="1" as="geometry">
            <mxPoint as="offset" />
          </mxGeometry>
        </mxCell>
        <mxCell id="jg6FokKtZJb7YqYSdvbs-9" value="n == 2" style="rhombus;whiteSpace=wrap;html=1;" vertex="1" parent="1">
          <mxGeometry x="370" y="830" width="80" height="80" as="geometry" />
        </mxCell>
        <mxCell id="jg6FokKtZJb7YqYSdvbs-34" value="" style="edgeStyle=orthogonalEdgeStyle;rounded=0;orthogonalLoop=1;jettySize=auto;html=1;" edge="1" parent="1" source="jg6FokKtZJb7YqYSdvbs-11" target="jg6FokKtZJb7YqYSdvbs-35">
          <mxGeometry relative="1" as="geometry">
            <mxPoint x="135" y="870" as="targetPoint" />
          </mxGeometry>
        </mxCell>
        <mxCell id="jg6FokKtZJb7YqYSdvbs-11" value="print 2nd" style="shape=parallelogram;perimeter=parallelogramPerimeter;whiteSpace=wrap;html=1;fixedSize=1;" vertex="1" parent="1">
          <mxGeometry x="190" y="840" width="120" height="60" as="geometry" />
        </mxCell>
        <mxCell id="jg6FokKtZJb7YqYSdvbs-18" value="" style="edgeStyle=orthogonalEdgeStyle;rounded=0;orthogonalLoop=1;jettySize=auto;html=1;" edge="1" parent="1" source="jg6FokKtZJb7YqYSdvbs-15" target="jg6FokKtZJb7YqYSdvbs-17">
          <mxGeometry relative="1" as="geometry" />
        </mxCell>
        <mxCell id="jg6FokKtZJb7YqYSdvbs-19" value="True" style="edgeLabel;html=1;align=center;verticalAlign=middle;resizable=0;points=[];" vertex="1" connectable="0" parent="jg6FokKtZJb7YqYSdvbs-18">
          <mxGeometry x="-0.2" relative="1" as="geometry">
            <mxPoint as="offset" />
          </mxGeometry>
        </mxCell>
        <mxCell id="jg6FokKtZJb7YqYSdvbs-22" value="" style="edgeStyle=orthogonalEdgeStyle;rounded=0;orthogonalLoop=1;jettySize=auto;html=1;" edge="1" parent="1" source="jg6FokKtZJb7YqYSdvbs-15" target="jg6FokKtZJb7YqYSdvbs-21">
          <mxGeometry relative="1" as="geometry" />
        </mxCell>
        <mxCell id="jg6FokKtZJb7YqYSdvbs-23" value="False" style="edgeLabel;html=1;align=center;verticalAlign=middle;resizable=0;points=[];" vertex="1" connectable="0" parent="jg6FokKtZJb7YqYSdvbs-22">
          <mxGeometry x="-0.0889" relative="1" as="geometry">
            <mxPoint as="offset" />
          </mxGeometry>
        </mxCell>
        <mxCell id="jg6FokKtZJb7YqYSdvbs-15" value="n == 3" style="rhombus;whiteSpace=wrap;html=1;" vertex="1" parent="1">
          <mxGeometry x="370" y="990" width="80" height="80" as="geometry" />
        </mxCell>
        <mxCell id="jg6FokKtZJb7YqYSdvbs-38" value="" style="edgeStyle=orthogonalEdgeStyle;rounded=0;orthogonalLoop=1;jettySize=auto;html=1;" edge="1" parent="1" source="jg6FokKtZJb7YqYSdvbs-17" target="jg6FokKtZJb7YqYSdvbs-36">
          <mxGeometry relative="1" as="geometry" />
        </mxCell>
        <mxCell id="jg6FokKtZJb7YqYSdvbs-17" value="print third" style="shape=parallelogram;perimeter=parallelogramPerimeter;whiteSpace=wrap;html=1;fixedSize=1;" vertex="1" parent="1">
          <mxGeometry x="190" y="1000" width="120" height="60" as="geometry" />
        </mxCell>
        <mxCell id="jg6FokKtZJb7YqYSdvbs-25" value="" style="edgeStyle=orthogonalEdgeStyle;rounded=0;orthogonalLoop=1;jettySize=auto;html=1;" edge="1" parent="1" source="jg6FokKtZJb7YqYSdvbs-21" target="jg6FokKtZJb7YqYSdvbs-24">
          <mxGeometry relative="1" as="geometry" />
        </mxCell>
        <mxCell id="jg6FokKtZJb7YqYSdvbs-21" value="print nth" style="shape=parallelogram;perimeter=parallelogramPerimeter;whiteSpace=wrap;html=1;fixedSize=1;" vertex="1" parent="1">
          <mxGeometry x="350" y="1160" width="120" height="60" as="geometry" />
        </mxCell>
        <mxCell id="jg6FokKtZJb7YqYSdvbs-24" value="End" style="ellipse;whiteSpace=wrap;html=1;" vertex="1" parent="1">
          <mxGeometry x="30" y="1140" width="130" height="100" as="geometry" />
        </mxCell>
        <mxCell id="jg6FokKtZJb7YqYSdvbs-33" value="" style="edgeStyle=orthogonalEdgeStyle;rounded=0;orthogonalLoop=1;jettySize=auto;html=1;entryX=0.5;entryY=0;entryDx=0;entryDy=0;" edge="1" parent="1" source="jg6FokKtZJb7YqYSdvbs-26" target="jg6FokKtZJb7YqYSdvbs-35">
          <mxGeometry relative="1" as="geometry">
            <mxPoint x="95" y="830" as="targetPoint" />
          </mxGeometry>
        </mxCell>
        <mxCell id="jg6FokKtZJb7YqYSdvbs-26" value="" style="shape=waypoint;sketch=0;size=6;pointerEvents=1;points=[];fillColor=default;resizable=0;rotatable=0;perimeter=centerPerimeter;snapToPoint=1;" vertex="1" parent="1">
          <mxGeometry x="85" y="700" width="20" height="20" as="geometry" />
        </mxCell>
        <mxCell id="jg6FokKtZJb7YqYSdvbs-37" value="" style="edgeStyle=orthogonalEdgeStyle;rounded=0;orthogonalLoop=1;jettySize=auto;html=1;" edge="1" parent="1" source="jg6FokKtZJb7YqYSdvbs-35" target="jg6FokKtZJb7YqYSdvbs-36">
          <mxGeometry relative="1" as="geometry" />
        </mxCell>
        <mxCell id="jg6FokKtZJb7YqYSdvbs-35" value="" style="ellipse;whiteSpace=wrap;html=1;aspect=fixed;" vertex="1" parent="1">
          <mxGeometry x="80" y="855" width="30" height="30" as="geometry" />
        </mxCell>
        <mxCell id="jg6FokKtZJb7YqYSdvbs-39" value="" style="edgeStyle=orthogonalEdgeStyle;rounded=0;orthogonalLoop=1;jettySize=auto;html=1;" edge="1" parent="1" source="jg6FokKtZJb7YqYSdvbs-36" target="jg6FokKtZJb7YqYSdvbs-24">
          <mxGeometry relative="1" as="geometry" />
        </mxCell>
        <mxCell id="jg6FokKtZJb7YqYSdvbs-36" value="" style="ellipse;whiteSpace=wrap;html=1;aspect=fixed;" vertex="1" parent="1">
          <mxGeometry x="80" y="1015" width="30" height="30" as="geometry" />
        </mxCell>
      </root>
    </mxGraphModel>
  </diagram>
</mxfile>
